<?xml version="1.0" encoding="utf-8"?>
<!-- Generator: Adobe Illustrator 28.0.0, SVG Export Plug-In . SVG Version: 6.00 Build 0)  -->
<svg version="1.1" id="Layer_1" xmlns="http://www.w3.org/2000/svg" xmlns:xlink="http://www.w3.org/1999/xlink" x="0px" y="0px"
	 viewBox="0 0 55.4 57" style="enable-background:new 0 0 55.4 57;" xml:space="preserve">
<style type="text/css">
	.st0{fill:#353238;}
	.st1{fill:none;}
</style>
<g>
	<path class="st0" d="M51.9,15.6v27.8l-3.4,1.9l-11,6.3l-6,3.4v-7.8l5.4-3.1l0.6-0.3l4.2-2.4l3.4-2v-20l-17.5-10
		c0,0-14.1,8.1-14.1,8.1l-3.3,1.9v20.2l8,4.6V20.2l12.4,7.1c-3.2,0.5-5,1.7-5.8,2.3v10.6c0,2.9,0,5.8,0,8.7c0,2.2,0,4.5,0.1,6.7
		c0,0.5-0.3,0.2-0.6,0.1c-0.2-0.2-0.5-0.3-0.7-0.5c-0.9-0.5-1.7-1-2.6-1.5c-1.2-0.7-2.3-1.3-3.5-2c-1.3-0.8-2.6-1.5-3.9-2.2
		c-1.3-0.7-2.5-1.5-3.8-2.2c-1.1-0.7-2.2-1.3-3.3-1.9c-0.8-0.5-1.6-0.9-2.3-1.4c-0.3-0.2-0.6-0.3-0.9-0.5V15.6l3.4-1.9l20.7-12
		L51.9,15.6z"/>
</g>
<g>
	<polygon class="st0" points="13.6,17.5 10.3,19.4 10.3,23.3 3.5,19.4 3.5,15.6 6.9,13.6 	"/>
	<polygon class="st0" points="31.5,27.8 31.5,35.5 18.3,27.9 18.3,20.2 30.7,27.3 	"/>
	<polygon class="st0" points="51.9,39.5 51.9,43.4 48.5,45.3 41.7,41.4 45.2,39.5 45.2,35.7 	"/>
</g>
<line class="st1" x1="31.5" y1="55" x2="31.5" y2="47.2"/>
<line class="st1" x1="31.5" y1="35.5" x2="31.5" y2="27.8"/>
<g>
	<polygon class="st0" points="37.5,44.5 37.5,51.6 31.5,55 31.5,55 31.5,41.1 31.5,41.1 36.9,44.2 	"/>
</g>
</svg>
