<?xml version="1.0" encoding="utf-8"?>
<!-- Generator: Adobe Illustrator 28.0.0, SVG Export Plug-In . SVG Version: 6.00 Build 0)  -->
<svg version="1.1" id="Layer_1" xmlns="http://www.w3.org/2000/svg" xmlns:xlink="http://www.w3.org/1999/xlink" x="0px" y="0px"
	 viewBox="0 0 55.4 57" style="enable-background:new 0 0 55.4 57;" xml:space="preserve">
<style type="text/css">
	.st0{fill:#F1E9DA;}
</style>
<g>
	<path class="st0" d="M27.6,0.5L2.5,15v29.1l22.4,13v-8L24.8,49v-5.2V29.6c1-0.8,4.1-2.7,9.7-2.6h1l0.3-7.7h-1
		c-4.2-0.2-7.4,0.6-9.9,1.6v-1.6h-7v24.5v1.1l-8.3-4.8V19L27.7,8.6L45.9,19v20.9L31.7,48v8.1L52.9,44V15L27.6,0.5z"/>
	<path class="st0" d="M42.5,25.9l1.2-1.2c0.8-0.9,0.8-2.3,0-3.1l-1.2-1.2c-0.8-0.9-2.2-0.9-3.1,0l-1.2,1.2c-0.9,0.8-0.9,2.2,0,3.1
		l1.2,1.2C40.2,26.8,41.6,26.8,42.5,25.9z"/>
</g>
</svg>
