<?xml version="1.0" encoding="utf-8"?>
<!-- Generator: Adobe Illustrator 28.0.0, SVG Export Plug-In . SVG Version: 6.00 Build 0)  -->
<svg version="1.1" id="Layer_1" xmlns="http://www.w3.org/2000/svg" xmlns:xlink="http://www.w3.org/1999/xlink" x="0px" y="0px"
	 viewBox="0 0 1920 739.8" style="enable-background:new 0 0 1920 739.8;" xml:space="preserve">
<style type="text/css">
	.st0{fill:#F7F7F7;}
</style>
<path class="st0" d="M1923.5,48l-3.2-37.7c-1.6,0.5-3.9,1.2-4,0.5c0-0.3-2.9,3.5-2.9,3.4c0.1,1.7-5.4,1.8-5.5,1.3
	c0.1,0.9-5.3,0.2-5.1,1.6c0.1,0.8-3.3,2.8-3.3,2.8c0.1,0.6-5.8,0.5-5.8,0.3c0,0.3-5.5-0.8-5.4-0.5c0-0.3-5.1,0.2-5,0.4
	c0-0.1-5-1.1-4.9-0.8c0,0.1-6.3,0.5-6.3,0.7c0.1,0.9-5.4-2.9-5.3-1.9c0,0.5-6.6,1-6.6,1.6c0,0.1-5.6-2.1-5.5-1.4
	c0.1,0.9-6.2-1.7-6.1-1.3c0.1,0.9-5.4,2-5.4,1.9c0,0-5,1-4.9,1.9c0.1,0.8-6.4-0.6-6.4-0.4c-0.1-0.7-5.4,1.1-5.4,1.2
	c-0.1-0.6-5.8-0.3-5.8,0.3c0,0.5-5.4,1.4-5.4,1.2c0-0.1-5.7,1.2-5.7,0.7c0,0-5.5-0.6-5.6-0.8c0,0.3-6.2,1.4-6.3,0.8
	c0-0.5-5.6-1-5.6-0.9c0,0.3-4.7-1.4-4.8-2.3c0,0.2-5.4-1-5.4-1.4c0-0.2-6.3,1.3-6.3,1.5c0-0.3-5.4,0.6-5.6-0.7
	c0.1,1.1-5.7-0.8-5.7-0.8c0-0.3-5.8-0.1-5.8-0.5c0,0.1-5.6,1.2-5.6,1.5c0.1,0.6-5.4,1.4-5.4,1.2c0,0-5.6,0.8-5.7,0.4
	c0,0.3-6-0.3-6,0.1c0-0.1-5.3,2-5.4,1.3c0-0.5-5.3,1.8-5.4,1.3c0,0.1-3.7,3.1-3.7,3c0.1,0.9-5.7-0.2-5.6,0.6c0.1,1.4-5,1-5,1.2
	c0-0.3-5.1,0.6-5.1,0.9c0-0.3-4.4,0.5-4.3,1.6c0-0.4-4.5,2-4.4,2.6c0,0.3-5.4,1.4-5.5-0.1c0-0.4-5.3,0.7-5.3,0.6
	c0.1,0.7-5.5-1-5.5-1.9c0-0.3-5.3,2.5-5.4,1.4c0.1,0.7-5.4,1.2-5.4,0.8c0,0.3-5.4-0.4-5.4-0.3c0,0.3-5.2-0.8-5.2-1.7
	c0-0.5-5.5,1.5-5.5,0.8c0-0.2-5.2-1.8-5.2-1c-0.1-0.8-5.6,0.7-5.7,0.3c-0.1-0.8-5.6-1.4-5.5-0.5c0,0.3-4.6-1.8-4.6-1.9
	c-0.1-0.9-5.1-0.7-5.2-1c-0.1-0.9-6.1-1.8-6-1c0,0.3-5.1-2.8-5-1.8c0-0.3-4.8-2.7-4.8-2.5c0,0.1-6.3,0.4-6.3,0.7
	c0,0.5-5.6,0.7-5.6,0.8c0.1,1-4.6,2.1-4.6,2.1c0,0.3-3.4,3.3-3.5,2.8c0,0.3-4.6,1.7-4.6,2.1c-0.1-0.6-4.8,1.4-4.7,1.5
	c0-0.3-5.3,0.9-5.3,0.6c-0.1-0.8-5.8-0.2-5.8-0.1c0-0.1-5.8-1.4-5.8-1.3c-0.1-0.6-5.8,0.1-5.8,0.1c0.1,1-5.7,1.4-5.7,0.6
	c0.1,0.8-5.8,0.3-5.8-0.5c0,0.4-5.8,1.3-5.8,1.6c0-0.2-5.9-2.1-5.9-1.9c0,0.1-5.6-0.5-5.6-0.1c0,0.2-5.8,1-5.9,0.1
	c0-0.3-4.3-1.8-4.3-1.8c0,0.1-4.4-1.2-4.4-1.9c0-0.5-5.9,0.2-5.9-0.2c0.1,0.6-6.4-1.3-6.4-1c-0.1-0.6-6.7-0.8-6.6,0.1
	c0-0.5-6.4,2.2-6.5,1.7c0-0.5-5.3-0.6-5.5-2.1c0-0.3-5.5-1.8-5.5-0.9c0-0.3-6.3,0-6.3,0.2c0,0.3-5.1-2.7-5-1.9
	c0-0.3-5.9-0.3-5.9-0.5c0-0.5-4.9-1.6-5-2.1c0-0.1-6.4-0.8-6.3,0.1s-6-0.8-5.9-0.4c0-0.1-5.1-1.6-5.1-1.8c0-0.4-6.4-0.5-6.3,0.3
	c-0.1-1-4.9-1.1-4.9-2.1c-0.1-1.2-2.4-1.2-3.9-1c-1.5-0.1-3.8,0.1-3.7,1.2c0.1,0.9-4.7,1.4-4.6,2.4c-0.1-0.7-6.3-0.2-6.3,0.3
	c0,0.1-4.8,2.1-4.8,2.1c0-0.5-5.8,1.8-5.8,0.8c-0.1-0.9-6.3,0.3-6.3,0.3c0,0.5-4.6,2.1-4.6,2.5c0,0.3-5.9,0.6-5.8,0.9
	c-0.1-0.8-4.6,2.6-4.7,2.2c0-0.2-6.3,0-6.3,0.3c-0.1-0.8-5.3,1-5.3,1.3c0.1,1.6-5.1,2-5.1,2.5s-6.8-1.8-6.7-1.2
	c-0.1-0.8-6.7-0.3-6.6,0.4c0-0.3-6.1,2.1-6.2,1.5c0,0.4-5.9,0.1-5.9,0.6c0.1,0.6-4.1,2.3-4.1,2.2c0,0.1-4,1.8-4,2.1
	c0.1,0.8-5.9,0.5-5.9,0.3c0-0.3-5.5,0.6-5.6,0.5c0-0.2-5.5,2.1-5.5,2.3c0-0.3-6-0.8-6-1.2c0.1,0.7-5.7,1.7-5.7,0.8
	c0.1,0.7-5.7,0.8-5.8-0.3c0,0-5.8-0.4-5.8,0.3c0-0.1-5.6,1.7-5.6,1.8c0-0.1-5.8-0.3-5.8,0.6c0,0.3-5.4-0.5-5.4-0.3
	c0-0.1-5-1.8-5-1.2c0-0.3-4.9-1.4-4.9-1.7c0,0.5-3.9-2.3-3.9-2.5c0,0.1-4.8-0.6-4.9-1.7c0-0.1-5.7,0.1-5.7-0.5
	c0-0.3-6.3-0.1-6.3-0.3c0-0.1-4.3,2.6-4.3,2.9c-0.1-1-4.7,2.4-4.7,2.1c-0.1-0.7-5.9,0.6-5.8,1.4c0,0.3-5,0.5-5,1.4
	c0,0.1-4.2,2.5-4.3,2.2c-0.1-0.9-5.5,0.1-5.4,0.8c0,0.5-5.8-0.6-5.7,0.1c-0.1-0.8-5,1.2-5,1.4c0.1,0.6-5.7-1-5.6-0.5
	c0.1,0.8-4.9,2.4-4.9,2.1c0-0.1-5.3,1-5.3,0.7c0,0.4-5.5,0.3-5.5-0.5c0.1,1.1-5.6-1.3-5.6-1c0.1,0.8-5.1,2.9-5.2,2.3
	c0,0.1-5.4-0.7-5.4-0.3c0.1,1.5-5.4,0.8-5.5,0.5c0-0.5-4.9-2.7-4.9-2.2c-0.1-1.2-4.6-1.7-4.6-1.3c0-0.3-5.3-0.8-5.2-0.5
	c0-0.3-5,0.5-5.2-0.8c-0.1-0.8-5.6,0.7-5.7-0.2c0,0.1-4.2-2.6-4.2-2.7c0,0.5-5.6-1.4-5.6-0.9c0.1,0.7-5.6-1-5.6-0.9
	c0-0.3-5.9,0.7-6,0.4c0,0.5-5.7,0-5.7,0c0,0.3-5.5-0.2-5.6-0.8c0-0.3-5.8-1-5.8-1.1c0,0.3-5.8,0.6-5.7,0.8c0,0-5.4,2.3-5.5,1.2
	c0.1,1.4-5.4,0.8-5.4,1.2c0-0.2-6.5-1.2-6.5-1c0,0.4-5.1,1.9-5.1,1.8c0.1,0.9-4.3,2.9-4.3,2.6c0-0.1-5.4,0.8-5.4,1.3
	c0.1,0.6-6.3,0.1-6.3-0.3c0,0.3-5.4,1.2-5.4,1.2c0,0.5-5.8-0.5-5.8-0.3c0,0.2-5.5-0.3-5.6-0.8c-0.1-0.6-5.8-0.5-5.8,0.1
	c0-0.1-5.6-1.5-5.6-0.8c0-0.3-6.2,1.7-6.2,0.8c-0.1-0.9-5.2-1.6-5.2-1.6c0,0.1-5.7-0.6-5.7-1.6c0-0.4-5.8,2.7-5.9,1.8
	c-0.1-0.6-5.2,1.9-5.2,1.8c0-0.5-6.8-0.5-6.8-1c-0.1-0.9-4.9,3.2-5,2.3c0-0.2-6.3-0.1-6.3-0.3c0-0.3-4.8,1-4.8,1.1
	c0-0.2-5.1-0.2-5.1,0c0-0.3-5.3,1.1-5.3,0.9c0,0.1-5.7,0.7-5.8,0.1c0-0.1-3.7-1.8-3.7-2.6c-0.1-1.4-5.3-0.3-5.4-1.2
	c0,0.5-5.5,0.8-5.7-0.9c0,0.1-3.5-3.5-3.5-3.2c0,0.6-1.3,0.4-2.6,0.1v-0.4c-0.2,0.1-0.4,0.1-0.7,0.2c-0.2-0.1-0.5-0.1-0.7-0.2v0.4
	c-1.3,0.4-2.6,0.6-2.6,0.1c0-0.3-2.9,3.5-2.9,3.4c0.1,1.7-5.4,1.8-5.5,1.3c0.1,0.9-5.3,0.2-5.1,1.6c0.1,0.8-3.3,2.8-3.3,2.8
	c0.1,0.6-5.8,0.5-5.8,0.3c0,0.3-5.5-0.8-5.4-0.5c0-0.3-5.1,0.2-5,0.4c0-0.1-5-1.1-4.9-0.8c0,0.1-6.3,0.5-6.3,0.7
	c0.1,0.9-5.4-2.9-5.3-1.9c0,0.5-6.6,1-6.6,1.6c0,0.1-5.6-2.1-5.5-1.4c0.1,0.9-6.2-1.7-6.1-1.3c0.1,0.9-5.4,2-5.4,1.9
	c0,0-5,1-4.9,1.9c0.1,0.8-6.4-0.6-6.4-0.4c-0.1-0.7-5.4,1.1-5.4,1.2c-0.1-0.6-5.8-0.3-5.8,0.3c0,0.5-5.4,1.4-5.4,1.2
	c0-0.1-5.7,1.2-5.7,0.7c0,0-5.5-0.6-5.6-0.8c0,0.3-6.2,1.4-6.3,0.8c0-0.5-5.6-1-5.6-0.9c0,0.3-4.7-1.4-4.8-2.3c0,0.2-5.4-1-5.4-1.4
	c0-0.2-6.3,1.3-6.3,1.5c0-0.3-5.4,0.6-5.6-0.7c0.1,1.1-5.7-0.8-5.7-0.8c0-0.3-5.8-0.1-5.8-0.5c0,0.1-5.6,1.2-5.6,1.5
	c0.1,0.6-5.4,1.4-5.4,1.2c0,0-5.6,0.8-5.7,0.4c0,0.3-6-0.3-6,0.1c0-0.1-5.3,2-5.4,1.3c0-0.5-5.3,1.8-5.4,1.3c0,0.1-3.7,3.1-3.7,3
	c0.1,0.9-5.7-0.2-5.6,0.6c0.1,1.4-5,1-5,1.2c0-0.3-5.1,0.6-5.1,0.9c0-0.3-4.4,0.5-4.3,1.6c0-0.4-4.5,2-4.4,2.6
	c0,0.3-5.4,1.4-5.5-0.1c0-0.4-5.3,0.7-5.3,0.6c0.1,0.7-5.5-1-5.5-1.9c0-0.3-5.3,2.5-5.4,1.4c0.1,0.7-5.4,1.2-5.4,0.8
	c0,0.3-5.4-0.4-5.4-0.3c0,0.3-5.2-0.8-5.2-1.7c0-0.5-5.5,1.5-5.5,0.8c0-0.2-5.2-1.8-5.2-1c-0.1-0.8-5.6,0.7-5.7,0.3
	c-0.1-0.8-5.6-1.4-5.5-0.5c0,0.3-4.6-1.8-4.6-1.9c-0.1-0.9-5.1-0.7-5.2-1c-0.1-0.9-6.1-1.8-6-1c0,0.3-5.1-2.8-5-1.8
	c0-0.3-4.8-2.7-4.8-2.5c0,0.1-6.3,0.4-6.3,0.7c0,0.5-5.6,0.7-5.6,0.8c0.1,1-4.6,2.1-4.6,2.1c0,0.3-3.4,3.3-3.5,2.8
	c0,0.3-4.6,1.7-4.6,2.1c-0.1-0.6-4.8,1.4-4.7,1.5c0-0.3-5.3,0.9-5.3,0.6c-0.1-0.8-5.8-0.2-5.8-0.1c0-0.1-5.8-1.4-5.8-1.3
	c-0.1-0.6-5.8,0.1-5.8,0.1c0.1,1-5.7,1.4-5.7,0.6c0.1,0.8-5.8,0.3-5.8-0.5c0,0.4-5.8,1.3-5.8,1.6c0-0.2-5.9-2.1-5.9-1.9
	c0,0.1-5.6-0.5-5.6-0.1c0,0.2-5.8,1-5.9,0.1c0-0.3-4.3-1.8-4.3-1.8c0,0.1-4.4-1.2-4.4-1.9c0-0.5-5.9,0.2-5.9-0.2
	c0.1,0.6-6.4-1.3-6.4-1c-0.1-0.6-6.7-0.8-6.6,0.1c0-0.5-6.4,2.2-6.5,1.7c0-0.5-5.3-0.6-5.5-2.1c0-0.3-5.5-1.8-5.5-0.9
	c0-0.3-6.3,0-6.3,0.2c0,0.3-5.1-2.7-5-1.9c0-0.3-5.9-0.3-5.9-0.5c0-0.5-4.9-1.6-5-2.1c0-0.1-6.4-0.8-6.3,0.1c0.1,0.9-6-0.8-5.9-0.4
	c0-0.1-5.1-1.6-5.1-1.8c0-0.4-6.4-0.5-6.3,0.3c-0.1-1-4.9-1.1-4.9-2.1c-0.1-1.4-3.7-1.1-4.7-0.8c-1.1-0.3-4.7-0.3-4.6,1.1
	c0.1,0.9-4.7,1.4-4.6,2.4c-0.1-0.7-6.3-0.2-6.3,0.3c0,0.1-4.8,2.1-4.8,2.1c0-0.5-5.8,1.8-5.8,0.8c-0.1-0.9-6.3,0.3-6.3,0.3
	c0,0.5-4.6,2.1-4.6,2.5c0,0.3-5.9,0.6-5.8,0.9c-0.1-0.8-4.6,2.6-4.7,2.2c0-0.2-6.3,0-6.3,0.3c-0.1-0.8-5.3,1-5.3,1.3
	c0.1,1.6-5.1,2-5.1,2.5c0,0.5-6.8-1.8-6.7-1.2c-0.1-0.8-6.7-0.3-6.6,0.4c0-0.3-6.1,2.1-6.2,1.5c0,0.4-5.9,0.1-5.9,0.6
	c0.1,0.6-4.1,2.3-4.1,2.2c0,0.1-4,1.8-4,2.1c0.1,0.8-5.9,0.5-5.9,0.3c0-0.3-5.5,0.6-5.6,0.5c0-0.2-5.5,2.1-5.5,2.3
	c0-0.3-6-0.8-6-1.2c0.1,0.7-5.7,1.7-5.7,0.8c0.1,0.7-5.7,0.8-5.8-0.3c0,0-5.8-0.4-5.8,0.3c0-0.1-5.6,1.7-5.6,1.8
	c0-0.1-5.8-0.3-5.8,0.6c0,0.3-5.4-0.5-5.4-0.3c0-0.1-5-1.8-5-1.2c0-0.3-4.9-1.4-4.9-1.7c0,0.5-3.9-2.3-3.9-2.5
	c0,0.1-4.8-0.6-4.9-1.7c0-0.1-5.7,0.1-5.7-0.5c0-0.3-6.3-0.1-6.3-0.3c0-0.1-4.3,2.6-4.3,2.9c-0.1-1-4.7,2.4-4.7,2.1
	c-0.1-0.7-5.9,0.6-5.8,1.4c0,0.3-5,0.5-5,1.4c0,0.1-4.2,2.5-4.3,2.2c-0.1-0.9-5.5,0.1-5.4,0.8c0,0.5-5.8-0.6-5.7,0.1
	c-0.1-0.8-5,1.2-5,1.4c0.1,0.6-5.7-1-5.6-0.5c0.1,0.8-4.9,2.4-4.9,2.1c0-0.1-5.3,1-5.3,0.7c0,0.4-5.5,0.3-5.5-0.5
	c0.1,1.1-5.6-1.3-5.6-1c0.1,0.8-5.1,2.9-5.2,2.3c0,0.1-5.4-0.7-5.4-0.3c0.1,1.5-5.4,0.8-5.5,0.5c0-0.5-4.9-2.7-4.9-2.2
	c-0.1-1.2-4.6-1.7-4.6-1.3c0-0.3-5.3-0.8-5.2-0.5c0-0.3-5,0.5-5.2-0.8c-0.1-0.8-5.6,0.7-5.7-0.2c0,0.1-4.2-2.6-4.2-2.7
	c0,0.5-5.6-1.4-5.6-0.9c0.1,0.7-5.6-1-5.6-0.9c0-0.3-5.9,0.7-6,0.4c0,0.5-5.7,0-5.7,0c0,0.3-5.5-0.2-5.6-0.8c0-0.3-5.8-1-5.8-1.1
	c0,0.3-5.8,0.6-5.7,0.8c0,0-5.4,2.3-5.5,1.2c0.1,1.4-5.4,0.8-5.4,1.2c0-0.2-6.5-1.2-6.5-1c0,0.4-5.1,1.9-5.1,1.8
	c0.1,0.9-4.3,2.9-4.3,2.6c0-0.1-5.4,0.8-5.4,1.3c0.1,0.6-6.3,0.1-6.3-0.3c0,0.3-5.4,1.2-5.4,1.2c0,0.5-5.8-0.5-5.8-0.3
	c0,0.2-5.5-0.3-5.6-0.8c-0.1-0.6-5.8-0.5-5.8,0.1c0-0.1-5.6-1.5-5.6-0.8c0-0.3-6.2,1.7-6.2,0.8c-0.1-0.9-5.2-1.6-5.2-1.6
	c0,0.1-5.7-0.6-5.7-1.6c0-0.4-5.8,2.7-5.9,1.8c-0.1-0.6-5.2,1.9-5.2,1.8c0-0.5-6.8-0.5-6.8-1c-0.1-0.9-4.9,3.2-5,2.3
	c0-0.2-6.3-0.1-6.3-0.3c0-0.3-4.8,1-4.8,1.1c0-0.2-5.1-0.2-5.1,0c0-0.3-5.3,1.1-5.3,0.9c0,0.1-5.7,0.7-5.8,0.1
	c0-0.1-3.7-1.8-3.7-2.6c-0.1-1.4-5.3-0.3-5.4-1.2c0,0.5-5.5,0.8-5.7-0.9c0,0.1-3.5-3.5-3.5-3.2c0.1,0.8-2.4,0.2-4.1-0.2l3.2,37.7
	l-1,0.1L-6,698.5l1983.7-71.8l-49.6-578.9L1923.5,48z"/>
<path class="st0" d="M-10.5,714.7l2.2,25.1c1.6-0.4,4-0.9,4-0.4c0,0.3,3-2.4,3-2.3c-0.1-1.1,5.5-1.3,5.5-0.9
	c-0.1-0.6,5.3-0.2,5.2-1.1c0-0.6,3.4-1.9,3.4-1.9c0-0.4,5.8-0.4,5.8-0.3c0-0.2,5.4,0.5,5.4,0.3c0,0.2,5.1-0.2,5.1-0.3
	c0,0.1,4.9,0.7,4.9,0.4c0-0.1,6.3-0.4,6.3-0.6c-0.1-0.6,5.3,1.9,5.3,1.3c0-0.4,6.7-0.8,6.6-1.1c0-0.1,5.5,1.3,5.5,0.9
	c-0.1-0.6,6.1,1.1,6.1,0.8c-0.1-0.6,5.5-1.4,5.5-1.4c0,0,5-0.8,5-1.4c0-0.6,6.4,0.4,6.3,0.2c0,0.5,5.4-0.8,5.4-0.9
	c0,0.4,5.8,0.1,5.8-0.3c0-0.4,5.4-1,5.4-0.9c0,0.1,5.7-0.9,5.8-0.6c0,0,5.5,0.3,5.5,0.5c0-0.3,6.2-0.9,6.3-0.6
	c0,0.3,5.5,0.6,5.5,0.6c0-0.2,4.6,0.9,4.7,1.5c0-0.1,5.3,0.6,5.4,0.9c0,0.1,6.3-0.9,6.3-1.1c0,0.2,5.5-0.4,5.5,0.4
	c-0.1-0.8,5.6,0.5,5.6,0.5c0,0.2,5.8,0.1,5.8,0.3c0-0.1,5.6-0.9,5.6-1.1c0-0.4,5.4-1,5.4-0.9c0,0,5.6-0.6,5.7-0.3c0-0.3,6,0.1,6-0.1
	c0,0.1,5.4-1.4,5.4-0.9c0,0.3,5.4-1.3,5.4-0.9c0-0.1,3.8-2.1,3.8-2c-0.1-0.6,5.7,0.1,5.7-0.5c-0.1-0.9,5-0.8,5-0.9
	c0,0.2,5.1-0.5,5.1-0.6c0,0.3,4.4-0.4,4.4-1.1c0,0.3,4.5-1.4,4.5-1.8c0-0.3,5.4-1,5.5-0.1c0,0.3,5.3-0.6,5.3-0.5
	c0-0.5,5.4,0.6,5.5,1.2c0,0.2,5.3-1.8,5.4-1c0-0.5,5.4-0.9,5.4-0.6c0-0.2,5.4,0.2,5.4,0.2c0-0.3,5.1,0.5,5.2,1.1
	c0,0.4,5.5-1.1,5.5-0.6c0,0.1,5.2,1.1,5.1,0.6c0,0.5,5.7-0.6,5.7-0.3c0,0.5,5.6,0.9,5.5,0.3c0-0.2,4.6,1.2,4.6,1.2
	c0.1,0.6,5.1,0.4,5.1,0.6c0.1,0.6,6,1.1,6,0.6c0-0.2,5,1.8,5,1.2c0,0.2,4.7,1.8,4.7,1.6c0-0.1,6.3-0.3,6.3-0.6
	c0-0.4,5.7-0.6,5.6-0.6c-0.1-0.7,4.6-1.5,4.6-1.4c0-0.2,3.5-2.3,3.6-1.9c0-0.3,4.7-1.2,4.6-1.4c0,0.4,4.8-1,4.8-1.1
	c0,0.2,5.3-0.7,5.3-0.5c0,0.6,5.8,0.1,5.8,0.1c0,0.1,5.8,0.9,5.8,0.8c0,0.4,5.8-0.2,5.8-0.2c-0.1-0.7,5.7-1,5.8-0.5
	c0-0.6,5.8-0.3,5.8,0.3c0-0.3,5.8-0.9,5.8-1.1c0,0.1,5.8,1.3,5.8,1.2c0-0.1,5.6,0.3,5.6,0c0-0.1,5.8-0.7,5.9-0.2
	c0,0.2,4.2,1.1,4.3,1.2c0-0.1,4.3,0.8,4.4,1.3c0,0.4,5.9-0.2,5.9,0.1c0-0.4,6.4,0.8,6.4,0.6c0,0.4,6.7,0.4,6.6-0.1
	c0,0.4,6.5-1.6,6.5-1.2c0,0.4,5.3,0.3,5.4,1.4c0,0.3,5.5,1.1,5.4,0.6c0,0.2,6.3-0.1,6.3-0.2c0-0.3,5,1.7,5,1.2
	c0,0.3,5.9,0.1,5.9,0.3c0,0.3,4.9,1.1,4.9,1.4c0,0.1,6.4,0.4,6.3-0.1c-0.1-0.6,6,0.5,5.9,0.2c0,0.1,5.1,1.1,5.1,1.1
	c0,0.3,6.3,0.3,6.3-0.3c0.1,0.7,4.8,0.7,4.9,1.3c0.1,0.8,2.4,0.8,3.9,0.6c1.5,0.1,3.8-0.1,3.7-0.9c-0.1-0.6,4.7-0.9,4.6-1.6
	c0,0.5,6.3,0.1,6.3-0.3c0-0.1,4.8-1.4,4.8-1.4c0,0.3,5.8-1.3,5.9-0.6c0.1,0.6,6.3-0.3,6.3-0.3c0-0.4,4.6-1.4,4.6-1.8
	c0-0.2,5.9-0.4,5.8-0.7c0,0.5,4.7-1.8,4.7-1.6c0,0.1,6.3-0.1,6.3-0.3c0,0.6,5.3-0.7,5.3-0.9c-0.1-1.1,5.2-1.4,5.1-1.8
	c0-0.4,6.7,1.1,6.7,0.8c0,0.6,6.6,0.1,6.6-0.4c0,0.2,6.2-1.5,6.2-1.1c0-0.3,5.9-0.1,5.9-0.5c0-0.4,4.1-1.6,4.1-1.5
	c0-0.1,4-1.3,4-1.5c0-0.6,5.9-0.4,5.9-0.3c0,0.3,5.6-0.4,5.6-0.4c0,0.1,5.6-1.5,5.6-1.6c0,0.3,5.9,0.4,6,0.8c0-0.5,5.7-1.2,5.7-0.6
	c0-0.5,5.8-0.6,5.8,0.1c0,0,5.8,0.2,5.8-0.3c0,0.1,5.6-1.2,5.6-1.2c0,0.1,5.8,0.1,5.8-0.4c0-0.2,5.4,0.3,5.4,0.1
	c0,0.1,5,1.2,4.9,0.8c0,0.3,4.8,0.9,4.9,1.1c0-0.4,3.9,1.5,3.9,1.6c0-0.1,4.8,0.4,4.9,1.1c0,0.1,5.7-0.1,5.7,0.3
	c0,0.2,6.3,0,6.3,0.1s4.4-1.8,4.4-1.9c0.1,0.7,4.7-1.6,4.7-1.5c0,0.5,5.9-0.4,5.8-1c0-0.3,5-0.4,5-1c0-0.1,4.3-1.8,4.3-1.5
	c0.1,0.6,5.5-0.1,5.4-0.6c0-0.3,5.7,0.4,5.7-0.2c0,0.6,5-0.8,5-0.9c0-0.4,5.6,0.6,5.6,0.3c0-0.6,4.9-1.7,5-1.4
	c0,0.1,5.3-0.7,5.3-0.6c0-0.3,5.5-0.3,5.5,0.3c-0.1-0.8,5.6,0.8,5.5,0.6c0-0.6,5.2-2,5.3-1.6c0-0.1,5.4,0.4,5.4,0.1
	c-0.1-1,5.4-0.6,5.5-0.4c0,0.4,4.8,1.7,4.8,1.4c0.1,0.8,4.6,1.1,4.5,0.8c0,0.2,5.2,0.5,5.2,0.3c0,0.2,5-0.4,5.1,0.5
	c0,0.6,5.7-0.6,5.7,0.1c0-0.1,4.1,1.7,4.1,1.8c0-0.3,5.6,0.9,5.5,0.6c0-0.5,5.5,0.6,5.5,0.6c0,0.2,6-0.6,6-0.3
	c0-0.3,5.7-0.1,5.7-0.1c0-0.2,5.5,0.1,5.5,0.5c0,0.2,5.8,0.6,5.8,0.7c0-0.2,5.8-0.5,5.7-0.6c0,0,5.5-1.6,5.5-0.9
	c-0.1-0.9,5.4-0.6,5.4-0.8c0,0.1,6.5,0.7,6.5,0.6c0-0.3,5.2-1.4,5.2-1.3c-0.1-0.6,4.4-1.9,4.4-1.8c0,0.1,5.4-0.6,5.4-0.9
	c0-0.4,6.3-0.1,6.3,0.1c0-0.2,5.4-0.9,5.4-0.9c0-0.3,5.8,0.3,5.8,0.1c0-0.1,5.5,0.1,5.5,0.5c0,0.4,5.8,0.3,5.8-0.2
	c0,0.1,5.6,0.9,5.5,0.5c0,0.2,6.2-1.2,6.3-0.6c0.1,0.6,5.2,1,5.2,1c0-0.1,5.6,0.4,5.7,1c0,0.3,5.8-1.9,5.9-1.3
	c0,0.4,5.3-1.4,5.3-1.3c0,0.3,6.8,0.3,6.8,0.6c0.1,0.6,5-2.2,5-1.6c0,0.1,6.3,0,6.3,0.1c0,0.3,4.8-0.7,4.8-0.8
	c0,0.1,5.1,0.1,5.1-0.1c0,0.2,5.3-0.8,5.3-0.7c0-0.1,5.8-0.6,5.8-0.1c0,0.1,3.6,1.1,3.7,1.7c0.1,0.9,5.3,0.2,5.4,0.8
	c0-0.3,5.5-0.6,5.6,0.6c0-0.1,3.4,2.3,3.4,2.1c0-0.4,1.3-0.3,2.6-0.1v0.3c0.2-0.1,0.5-0.1,0.7-0.1c0.2,0.1,0.5,0.1,0.7,0.1v-0.3
	c1.3-0.3,2.6-0.4,2.6-0.1c0,0.3,3-2.4,3-2.3c-0.1-1.1,5.5-1.3,5.5-0.9c-0.1-0.6,5.3-0.2,5.2-1.1c0-0.6,3.4-1.9,3.4-1.9
	c0-0.4,5.8-0.4,5.8-0.3c0-0.2,5.4,0.5,5.4,0.3c0,0.2,5.1-0.2,5.1-0.3c0,0.1,4.9,0.7,4.9,0.4c0-0.1,6.3-0.4,6.3-0.6
	c-0.1-0.6,5.3,1.9,5.3,1.3c0-0.4,6.7-0.8,6.6-1.1c0-0.1,5.5,1.3,5.5,0.9c-0.1-0.6,6.1,1.1,6.1,0.8c-0.1-0.6,5.5-1.4,5.5-1.4
	c0,0,5-0.8,5-1.4c0-0.6,6.4,0.4,6.3,0.2c0,0.5,5.4-0.8,5.4-0.9c0,0.4,5.8,0.1,5.8-0.3s5.4-1,5.4-0.9c0,0.1,5.7-0.9,5.8-0.6
	c0,0,5.5,0.3,5.5,0.5c0-0.3,6.2-0.9,6.3-0.6c0,0.3,5.5,0.6,5.5,0.6c0-0.2,4.6,0.9,4.7,1.5c0-0.1,5.3,0.6,5.4,0.9
	c0,0.1,6.3-0.9,6.3-1.1c0,0.2,5.5-0.4,5.5,0.4c-0.1-0.8,5.6,0.5,5.6,0.5c0,0.2,5.8,0.1,5.8,0.3c0-0.1,5.6-0.9,5.6-1.1
	c0-0.4,5.4-1,5.4-0.9c0,0,5.6-0.6,5.7-0.3c0-0.3,6,0.1,6-0.1c0,0.1,5.4-1.4,5.4-0.9c0,0.3,5.4-1.3,5.4-0.9c0-0.1,3.8-2.1,3.8-2
	c-0.1-0.6,5.7,0.1,5.7-0.5c-0.1-0.9,5-0.8,5-0.9c0,0.2,5.1-0.5,5.1-0.6c0,0.3,4.4-0.4,4.4-1.1c0,0.3,4.5-1.4,4.5-1.8
	c0-0.3,5.4-1,5.5-0.1c0,0.3,5.3-0.6,5.3-0.5c0-0.5,5.4,0.6,5.5,1.2c0,0.2,5.3-1.8,5.4-1c0-0.5,5.4-0.9,5.4-0.6
	c0-0.2,5.4,0.2,5.4,0.2c0-0.3,5.1,0.5,5.2,1.1c0,0.4,5.5-1.1,5.5-0.6c0,0.1,5.2,1.1,5.1,0.6c0,0.5,5.7-0.6,5.7-0.3
	c0,0.5,5.6,0.9,5.5,0.3c0-0.2,4.6,1.2,4.6,1.2c0.1,0.6,5.1,0.4,5.1,0.6c0.1,0.6,6,1.1,6,0.6c0-0.2,5,1.8,5,1.2
	c0,0.2,4.7,1.8,4.7,1.6c0-0.1,6.3-0.3,6.3-0.6c0-0.4,5.7-0.6,5.6-0.6c-0.1-0.7,4.6-1.5,4.6-1.4c0-0.2,3.5-2.3,3.6-1.9
	c0-0.3,4.7-1.2,4.6-1.4c0,0.4,4.8-1,4.8-1.1c0,0.2,5.3-0.7,5.3-0.5c0,0.6,5.8,0.1,5.8,0.1c0,0.1,5.8,0.9,5.8,0.8
	c0,0.4,5.8-0.2,5.8-0.2c-0.1-0.7,5.7-1,5.8-0.5c0-0.6,5.8-0.3,5.8,0.3c0-0.3,5.8-0.9,5.8-1.1c0,0.1,5.8,1.3,5.8,1.2
	c0-0.1,5.6,0.3,5.6,0c0-0.1,5.8-0.7,5.9-0.2c0,0.2,4.2,1.1,4.3,1.2c0-0.1,4.3,0.8,4.4,1.3c0,0.4,5.9-0.2,5.9,0.1
	c0-0.4,6.4,0.8,6.4,0.6c0,0.4,6.7,0.4,6.6-0.1c0,0.4,6.5-1.6,6.5-1.2c0,0.4,5.3,0.3,5.4,1.4c0,0.3,5.5,1.1,5.4,0.6
	c0,0.2,6.3-0.1,6.3-0.2c0-0.3,5,1.7,5,1.2c0,0.3,5.9,0.1,5.9,0.3c0,0.3,4.9,1.1,4.9,1.4c0,0.1,6.4,0.4,6.3-0.1
	c-0.1-0.6,6,0.5,5.9,0.2c0,0.1,5.1,1.1,5.1,1.1c0,0.3,6.3,0.3,6.3-0.3c0.1,0.7,4.8,0.7,4.9,1.3c0.1,0.9,3.7,0.7,4.7,0.5
	c1.1,0.1,4.7,0.2,4.6-0.8c-0.1-0.6,4.7-0.9,4.6-1.6c0,0.5,6.3,0.1,6.3-0.3c0-0.1,4.8-1.4,4.8-1.4c0,0.3,5.8-1.3,5.9-0.6
	c0.1,0.6,6.3-0.3,6.3-0.3c0-0.4,4.6-1.4,4.6-1.8c0-0.2,5.9-0.4,5.8-0.7c0,0.5,4.7-1.8,4.7-1.6c0,0.1,6.3-0.1,6.3-0.3
	c0,0.6,5.3-0.7,5.3-0.9c-0.1-1.1,5.2-1.4,5.1-1.8c0-0.4,6.7,1.1,6.7,0.8c0,0.6,6.6,0.1,6.6-0.4c0,0.2,6.2-1.5,6.2-1.1
	c0-0.3,5.9-0.1,5.9-0.5c0-0.4,4.1-1.6,4.1-1.5c0-0.1,4-1.3,4-1.5c0-0.6,5.9-0.4,5.9-0.3c0,0.3,5.6-0.4,5.6-0.4
	c0,0.1,5.6-1.5,5.6-1.6c0,0.3,5.9,0.4,6,0.8c0-0.5,5.7-1.2,5.7-0.6c0-0.5,5.8-0.6,5.8,0.1c0,0,5.8,0.2,5.8-0.3
	c0,0.1,5.6-1.2,5.6-1.2c0,0.1,5.8,0.1,5.8-0.4c0-0.2,5.4,0.3,5.4,0.1c0,0.1,5,1.2,4.9,0.8c0,0.3,4.8,0.9,4.9,1.1
	c0-0.4,3.9,1.5,3.9,1.6c0-0.1,4.8,0.4,4.9,1.1c0,0.1,5.7-0.1,5.7,0.3c0,0.2,6.3,0,6.3,0.1s4.4-1.8,4.4-1.9c0.1,0.7,4.7-1.6,4.7-1.5
	c0,0.5,5.9-0.4,5.8-1c0-0.3,5-0.4,5-1c0-0.1,4.3-1.8,4.3-1.5c0.1,0.6,5.5-0.1,5.4-0.6c0-0.3,5.7,0.4,5.7-0.2c0,0.6,5-0.8,5-0.9
	c0-0.4,5.6,0.6,5.6,0.3c0-0.6,4.9-1.7,5-1.4c0,0.1,5.3-0.7,5.3-0.6c0-0.3,5.5-0.3,5.5,0.3c-0.1-0.8,5.6,0.8,5.5,0.6
	c0-0.6,5.2-2,5.3-1.6c0-0.1,5.4,0.4,5.4,0.1c-0.1-1,5.4-0.6,5.5-0.4c0,0.4,4.8,1.7,4.8,1.4c0.1,0.8,4.6,1.1,4.5,0.8
	c0,0.2,5.2,0.5,5.2,0.3c0,0.2,5-0.4,5.1,0.5c0,0.6,5.7-0.6,5.7,0.1c0-0.1,4.1,1.7,4.1,1.8c0-0.3,5.6,0.9,5.5,0.6
	c0-0.5,5.5,0.6,5.5,0.6c0,0.2,6-0.6,6-0.3c0-0.3,5.7-0.1,5.7-0.1c0-0.2,5.5,0.1,5.5,0.5c0,0.2,5.8,0.6,5.8,0.7
	c0-0.2,5.8-0.5,5.7-0.6c0,0,5.5-1.6,5.5-0.9c-0.1-0.9,5.4-0.6,5.4-0.8c0,0.1,6.5,0.7,6.5,0.6c0-0.3,5.2-1.4,5.2-1.3
	c-0.1-0.6,4.4-1.9,4.4-1.8c0,0.1,5.4-0.6,5.4-0.9c0-0.4,6.3-0.1,6.3,0.1c0-0.2,5.4-0.9,5.4-0.9c0-0.3,5.8,0.3,5.8,0.1
	s5.5,0.1,5.5,0.5c0,0.4,5.8,0.3,5.8-0.2c0,0.1,5.6,0.9,5.5,0.5c0,0.2,6.2-1.2,6.3-0.6c0.1,0.6,5.2,1,5.2,1c0-0.1,5.6,0.4,5.7,1
	c0,0.3,5.8-1.9,5.9-1.3c0,0.4,5.3-1.4,5.3-1.3c0,0.3,6.8,0.3,6.8,0.6c0.1,0.6,5-2.2,5-1.6c0,0.1,6.3,0,6.3,0.1
	c0,0.3,4.8-0.7,4.8-0.8c0,0.1,5.1,0.1,5.1-0.1c0,0.2,5.3-0.8,5.3-0.7c0-0.1,5.8-0.6,5.8-0.1c0,0.1,3.6,1.1,3.7,1.7
	c0.1,0.9,5.3,0.2,5.4,0.8c0-0.3,5.5-0.6,5.6,0.6c0-0.1,3.4,2.3,3.4,2.1c0-0.5,2.4-0.2,4.1,0.1l-2.2-25.1l1-0.1l-34.4-386.2
	L-49.5,328.6l34.4,386.2L-10.5,714.7z"/>
</svg>
